<svg width="30" height="27" viewBox="0 0 30 27" fill="none" xmlns="http://www.w3.org/2000/svg">
<path d="M14.9661 18.2335C14.6979 18.2335 14.4358 18.3095 14.2129 18.4519C13.99 18.5943 13.8162 18.7967 13.7136 19.0335C13.611 19.2704 13.5841 19.531 13.6364 19.7824C13.6888 20.0338 13.8179 20.2647 14.0075 20.446C14.1971 20.6272 14.4386 20.7506 14.7016 20.8007C14.9646 20.8507 15.2372 20.825 15.4849 20.7269C15.7326 20.6288 15.9443 20.4627 16.0933 20.2496C16.2423 20.0364 16.3218 19.7859 16.3218 19.5295C16.3218 19.1858 16.1789 18.8561 15.9247 18.6131C15.6705 18.37 15.3256 18.2335 14.9661 18.2335ZM29.4312 20.1387L18.518 1.99412C18.1652 1.38954 17.65 0.885957 17.0256 0.535393C16.4012 0.184829 15.6902 0 14.9661 0C14.2419 0 13.531 0.184829 12.9065 0.535393C12.2821 0.885957 11.7669 1.38954 11.4142 1.99412L0.568734 20.1387C0.203778 20.7271 0.00767438 21.3971 0.000220706 22.0812C-0.00723296 22.7652 0.174227 23.4391 0.526281 24.0346C0.878336 24.6302 1.38852 25.1264 2.00533 25.4732C2.62214 25.82 3.32373 26.005 4.03928 26.0097H25.8929C26.6142 26.0165 27.3244 25.8398 27.9507 25.4977C28.577 25.1555 29.0968 24.6603 29.4569 24.0628C29.817 23.4653 30.0044 22.787 29.9999 22.0974C29.9954 21.4078 29.7991 20.7318 29.4312 20.1387ZM27.0859 22.7307C26.967 22.9328 26.7937 23.1008 26.5838 23.2171C26.374 23.3333 26.1354 23.3936 25.8929 23.3917H4.03928C3.79676 23.3936 3.55815 23.3333 3.34831 23.2171C3.13848 23.1008 2.96511 22.9328 2.84628 22.7307C2.72729 22.5337 2.66465 22.3102 2.66465 22.0827C2.66465 21.8552 2.72729 21.6317 2.84628 21.4347L13.6917 3.29016C13.8055 3.07787 13.9783 2.89971 14.1912 2.7753C14.4041 2.65089 14.6488 2.58507 14.8983 2.58507C15.1478 2.58507 15.3925 2.65089 15.6054 2.7753C15.8182 2.89971 15.9911 3.07787 16.1049 3.29016L27.0181 21.4347C27.1526 21.6289 27.2299 21.8541 27.2418 22.0868C27.2537 22.3194 27.1999 22.5508 27.0859 22.7567V22.7307ZM14.9661 7.86518C14.6065 7.86518 14.2617 8.00172 14.0075 8.24478C13.7532 8.48783 13.6104 8.81748 13.6104 9.16121V14.3454C13.6104 14.6891 13.7532 15.0188 14.0075 15.2618C14.2617 15.5049 14.6065 15.6414 14.9661 15.6414C15.3256 15.6414 15.6705 15.5049 15.9247 15.2618C16.1789 15.0188 16.3218 14.6891 16.3218 14.3454V9.16121C16.3218 8.81748 16.1789 8.48783 15.9247 8.24478C15.6705 8.00172 15.3256 7.86518 14.9661 7.86518Z" fill="black"/>
</svg>
