<svg width="128" height="37" viewBox="0 0 128 37" fill="none" xmlns="http://www.w3.org/2000/svg">
<path d="M16.5 33.5C18.1333 33.5 19.65 33.2167 21.05 32.65C22.4833 32.0833 23.8833 31.2833 25.25 30.25L27.25 33.25C26.6167 33.8167 25.8667 34.3333 25 34.8C24.1667 35.2667 23.25 35.6667 22.25 36C21.2833 36.3 20.2667 36.5333 19.2 36.7C18.1333 36.9 17.0667 37 16 37C13.6333 37 11.4667 36.6833 9.5 36.05C7.56667 35.45 5.91667 34.5667 4.55 33.4C3.18333 32.2 2.11667 30.7333 1.35 29C0.616667 27.2667 0.25 25.2667 0.25 23C0.25 20.7667 0.6 18.7833 1.3 17.05C2.03333 15.2833 3.03333 13.8167 4.3 12.65C5.6 11.45 7.13333 10.55 8.9 9.95C10.6667 9.31667 12.6167 9 14.75 9C16.75 9 18.6333 9.3 20.4 9.9C22.1667 10.5 23.7 11.3833 25 12.55C26.3 13.6833 27.3333 15.0667 28.1 16.7C28.8667 18.3333 29.25 20.1833 29.25 22.25V25.75H7.9C8.3 28.5167 9.25 30.5 10.75 31.7C12.2833 32.9 14.2 33.5 16.5 33.5ZM14.75 12.25C13.7833 12.25 12.8833 12.4333 12.05 12.8C11.2167 13.1667 10.4833 13.75 9.85 14.55C9.25 15.35 8.75 16.3833 8.35 17.65C7.98333 18.9167 7.78333 20.45 7.75 22.25H21.75C21.75 20.5167 21.55 19.0167 21.15 17.75C20.75 16.4833 20.2167 15.45 19.55 14.65C18.9167 13.8167 18.1667 13.2167 17.3 12.85C16.4667 12.45 15.6167 12.25 14.75 12.25ZM80.4785 36H73.4785V10.5H80.4785V36ZM80.7285 3.75C80.7285 4.75 80.3785 5.63333 79.6785 6.4C79.0118 7.13333 78.1118 7.5 76.9785 7.5C75.8452 7.5 74.9285 7.13333 74.2285 6.4C73.5618 5.63333 73.2285 4.75 73.2285 3.75C73.2285 2.75 73.5618 1.88333 74.2285 1.15C74.9285 0.383332 75.8452 -1.43051e-06 76.9785 -1.43051e-06C78.0785 -1.43051e-06 78.9785 0.383332 79.6785 1.15C80.3785 1.88333 80.7285 2.75 80.7285 3.75ZM87.7305 10H113.73C118.497 10 122.014 10.8667 124.28 12.6C126.58 14.3 127.73 16.85 127.73 20.25V36H120.73V20.25C120.73 17.85 120.13 16.1333 118.93 15.1C117.73 14.0333 115.997 13.5 113.73 13.5H111.23V36H104.23V13.5H94.7305V36H87.7305V10Z" fill="black"/>
<path d="M54.8461 18.05L69.7461 36H61.2461L50.5961 23.2L39.9961 36H31.4961L46.3461 18.05L32.2461 0.999998H40.7461L50.5961 12.95L60.4961 0.999998H68.9961L54.8461 18.05Z" fill="black"/>
<path d="M54.8461 18.05L69.7461 36H61.2461L50.5961 23.2L39.9961 36H31.4961L46.3461 18.05L32.2461 0.999998H40.7461L50.5961 12.95L60.4961 0.999998H68.9961L54.8461 18.05Z" fill="#7C73F5"/>
</svg>
