<svg width="40" height="32" viewBox="0 0 40 32" fill="none" xmlns="http://www.w3.org/2000/svg">
<path d="M20 30C29.941 30 38 23.1641 38 18.5C38 13.8359 29.941 7 20 7C10.059 7 2 13.8409 2 18.5C2 23.1591 10.059 30 20 30Z" fill="white" stroke="black" stroke-width="4" stroke-linejoin="round"/>
<path d="M20 23C21.3261 23 22.5979 22.5259 23.5355 21.682C24.4732 20.8381 25 19.6935 25 18.5C25 17.3065 24.4732 16.1619 23.5355 15.318C22.5979 14.4741 21.3261 14 20 14C18.6739 14 17.4021 14.4741 16.4645 15.318C15.5268 16.1619 15 17.3065 15 18.5C15 19.6935 15.5268 20.8381 16.4645 21.682C17.4021 22.5259 18.6739 23 20 23Z" fill="#7C73F5" stroke="black" stroke-width="4" stroke-linejoin="round"/>
<path d="M8 10L3 5M20.5 6.5V0.5M33 11L38 6" stroke="black" stroke-width="5"/>
</svg>
