<svg width="61" height="61" viewBox="0 0 61 61" fill="none" xmlns="http://www.w3.org/2000/svg">
<path d="M12.7083 53.375V42.8093C9.53125 39.0985 7.625 34.3735 7.625 29.2292C7.625 17.2986 17.8679 7.625 30.5 7.625C43.1321 7.625 53.375 17.2986 53.375 29.2292C53.375 41.1598 43.1321 50.8333 30.5 50.8333C26.2758 50.8468 22.1243 49.7344 18.4728 47.6105L12.7083 53.375ZM30.5 45.75C40.3261 45.75 48.2917 38.3538 48.2917 29.2292C48.2917 20.1046 40.3261 12.7083 30.5 12.7083C20.6739 12.7083 12.7083 20.1046 12.7083 29.2292C12.7083 38.3538 20.6739 45.75 30.5 45.75ZM24.1458 33.0417C23.1347 33.0417 22.165 32.64 21.45 31.925C20.735 31.21 20.3333 30.2403 20.3333 29.2292C20.3333 28.218 20.735 27.2483 21.45 26.5333C22.165 25.8183 23.1347 25.4167 24.1458 25.4167C25.157 25.4167 26.1267 25.8183 26.8417 26.5333C27.5567 27.2483 27.9583 28.218 27.9583 29.2292C27.9583 30.2403 27.5567 31.21 26.8417 31.925C26.1267 32.64 25.157 33.0417 24.1458 33.0417ZM36.8542 33.0417C35.843 33.0417 34.8733 32.64 34.1583 31.925C33.4433 31.21 33.0417 30.2403 33.0417 29.2292C33.0417 28.218 33.4433 27.2483 34.1583 26.5333C34.8733 25.8183 35.843 25.4167 36.8542 25.4167C37.8653 25.4167 38.835 25.8183 39.55 26.5333C40.265 27.2483 40.6667 28.218 40.6667 29.2292C40.6667 30.2403 40.265 31.21 39.55 31.925C38.835 32.64 37.8653 33.0417 36.8542 33.0417Z" fill="black"/>
</svg>
