<svg width="112" height="112" viewBox="0 0 112 112" fill="none" xmlns="http://www.w3.org/2000/svg">
<rect width="112" height="112" rx="5" fill="#7C73F5"/>
<rect width="112" height="112" rx="5" stroke="black"/>
<path d="M67.4373 57.9245C70.4719 55.5285 72.6868 52.243 73.774 48.5249C74.8612 44.8068 74.7665 40.8411 73.5033 37.1795C72.24 33.518 69.871 30.3425 66.7257 28.0951C63.5803 25.8476 59.8152 24.6399 55.9541 24.6399C52.093 24.6399 48.3279 25.8476 45.1826 28.0951C42.0373 30.3425 39.6682 33.518 38.4049 37.1795C37.1417 40.8411 37.0471 44.8068 38.1342 48.5249C39.2214 52.243 41.4364 55.5285 44.4709 57.9245C39.2712 60.0151 34.7342 63.4826 31.3438 67.9573C27.9533 72.432 25.8364 77.7461 25.2187 83.3333C25.174 83.7412 25.2098 84.1539 25.324 84.548C25.4382 84.942 25.6287 85.3096 25.8845 85.6298C26.4011 86.2764 27.1525 86.6905 27.9734 86.7811C28.7943 86.8718 29.6175 86.6314 30.2618 86.113C30.9061 85.5945 31.3188 84.8404 31.4091 84.0166C32.0888 77.9446 34.9738 72.3367 39.513 68.2644C44.0523 64.1921 49.9274 61.9409 56.016 61.9409C62.1046 61.9409 67.9798 64.1921 72.519 68.2644C77.0582 72.3367 79.9433 77.9446 80.6229 84.0166C80.7071 84.7799 81.07 85.4848 81.6416 85.9953C82.2132 86.5059 82.9529 86.7858 83.7181 86.7811H84.0586C84.87 86.6875 85.6115 86.2757 86.1217 85.6357C86.6319 84.9957 86.8694 84.1793 86.7824 83.3643C86.1618 77.7614 84.0335 72.4335 80.6256 67.9519C77.2177 63.4704 72.6587 60.004 67.4373 57.9245ZM55.9541 55.7191C53.5054 55.7191 51.1117 54.9904 49.0757 53.6251C47.0397 52.2598 45.4528 50.3193 44.5157 48.049C43.5786 45.7787 43.3334 43.2804 43.8112 40.8703C44.2889 38.4601 45.468 36.2462 47.1995 34.5085C48.931 32.7709 51.1371 31.5875 53.5387 31.1081C55.9404 30.6287 58.4297 30.8748 60.692 31.8152C62.9544 32.7556 64.888 34.3481 66.2484 36.3913C67.6088 38.4346 68.3349 40.8368 68.3349 43.2942C68.3349 46.5895 67.0305 49.7498 64.7087 52.0799C62.3868 54.41 59.2377 55.7191 55.9541 55.7191Z" fill="black"/>
</svg>
