<svg width="195" height="194" viewBox="0 0 195 194" fill="none" xmlns="http://www.w3.org/2000/svg">
<path d="M77.9515 7.56773L83.4343 24.9222L76.3686 27.1545C74.5174 27.7394 72.7802 27.8792 71.1568 27.5741C69.5222 27.2907 68.1102 26.6188 66.9209 25.5585C65.7315 24.4982 64.8679 23.1169 64.3301 21.4145C63.7923 19.7121 63.7055 18.0853 64.0698 16.5342C64.4341 14.983 65.2012 13.6137 66.3711 12.4261C67.5297 11.2602 69.0346 10.3848 70.8858 9.80001L77.9515 7.56773ZM76.6182 9.73404L71.4862 11.3554C69.9491 11.841 68.7126 12.5589 67.7766 13.5089C66.8294 14.4808 66.2089 15.5948 65.915 16.851C65.6263 18.1238 65.7013 19.4543 66.1399 20.8427C66.5838 22.2476 67.2868 23.3797 68.2491 24.2391C69.2113 25.0985 70.3567 25.6455 71.6851 25.8802C73.0022 26.1367 74.4293 26.0221 75.9664 25.5365L81.0984 23.9152L76.6182 9.73404Z" fill="black"/>
<path d="M47.6488 20.642C48.8378 19.8633 50.0433 19.426 51.2652 19.3302C52.4966 19.2488 53.6509 19.477 54.7283 20.0146C55.8151 20.5667 56.7289 21.4082 57.4697 22.5392C58.2104 23.6702 58.6265 24.8274 58.7178 26.0108C58.7947 27.2037 58.574 28.3221 58.0559 29.3659C57.5328 30.4337 56.742 31.3143 55.6835 32.0076C54.6105 32.7104 53.4993 33.0859 52.3499 33.1343C51.1955 33.2066 50.0894 32.9572 49.0316 32.3862C47.9833 31.8296 47.084 30.9785 46.3337 29.833C46.2862 29.7605 46.2412 29.676 46.1987 29.5795C46.1513 29.507 46.099 29.4273 46.042 29.3403L55.9818 22.83L56.7368 23.9827L47.6236 29.9517L47.9334 29.0961C48.4747 29.9226 49.1356 30.5361 49.916 30.9367C50.6913 31.3612 51.5022 31.5553 52.3487 31.5189C53.1951 31.4826 54.017 31.2032 54.8145 30.6809C55.5975 30.168 56.1821 29.5261 56.5681 28.7553C56.9542 27.9844 57.1076 27.1587 57.0282 26.2783C56.9488 25.3979 56.6337 24.5372 56.0829 23.6962L55.9262 23.4569C55.3564 22.5869 54.6645 21.9419 53.8506 21.5218C53.0318 21.1257 52.1581 20.9624 51.2297 21.0318C50.2963 21.1251 49.3873 21.4615 48.5028 22.0408C47.8068 22.4966 47.2423 23.0425 46.8092 23.6784C46.3617 24.3238 46.0866 25.0427 45.984 25.8351L44.4587 25.4044C44.5673 24.463 44.9014 23.5811 45.461 22.7588C46.0061 21.946 46.7353 21.2404 47.6488 20.642ZM58.2159 32.7421L57.0027 37.3908L54.9364 38.7441L56.6935 33.7393L58.2159 32.7421Z" fill="black"/>
<path d="M35.188 30.7199L45.9897 41.6486C46.8426 42.5116 47.2783 43.4579 47.2968 44.4875C47.3153 45.5172 46.8499 46.5012 45.9007 47.4394C45.5309 47.8049 45.1246 48.109 44.682 48.3515C44.2393 48.5941 43.7973 48.7263 43.3559 48.7482L42.831 47.3295C43.1744 47.307 43.5058 47.2109 43.8255 47.0412C44.1574 46.8838 44.4651 46.6649 44.7486 46.3847C45.3034 45.8364 45.5764 45.2619 45.5676 44.6613C45.5589 44.0607 45.256 43.4583 44.6589 42.8542L43.1968 41.3749L42.5566 40.8012L33.875 32.0176L35.188 30.7199ZM45.4433 37.6191L46.5216 38.7101L40.5118 44.6501L39.4334 43.5591L45.4433 37.6191Z" fill="black"/>
<path d="M25.8064 41.1933L36.7313 49.3768L35.6246 50.8543L24.6997 42.6708L25.8064 41.1933ZM38.5841 51.9341C38.8127 51.6289 39.109 51.4502 39.4729 51.3979C39.8369 51.3457 40.1646 51.4287 40.4559 51.647C40.7472 51.8652 40.9121 52.1511 40.9504 52.5047C41.0026 52.8686 40.9144 53.2032 40.6858 53.5084C40.4572 53.8136 40.1678 53.9975 39.8177 54.0601C39.4676 54.1228 39.1469 54.0449 38.8556 53.8267C38.5504 53.5981 38.3717 53.3018 38.3195 52.9378C38.2569 52.5877 38.3451 52.2532 38.5841 51.9341Z" fill="black"/>
<path d="M18.9915 51.4892L35.8663 60.8393L34.9716 62.454L18.0968 53.1039L18.9915 51.4892Z" fill="black"/>
<path d="M11.5124 68.158C11.9564 66.8078 12.6261 65.7143 13.5217 64.8775C14.4337 64.0462 15.4784 63.5047 16.6559 63.2533C17.8498 63.0073 19.089 63.0954 20.3733 63.5178C21.6577 63.9401 22.7045 64.5854 23.5137 65.4536C24.3176 66.3384 24.8424 67.3503 25.0882 68.4894C25.3451 69.6504 25.2759 70.8319 24.8806 72.0339C24.48 73.2524 23.8454 74.2389 22.9769 74.9933C22.1195 75.7697 21.0992 76.2644 19.9161 76.4775C18.7495 76.696 17.5158 76.5914 16.215 76.1636C16.1326 76.1366 16.0448 76.0985 15.9514 76.0496C15.8691 76.0225 15.7785 75.9927 15.6797 75.9602L19.3914 64.6728L20.7004 65.1033L17.2974 75.4521L17.0061 74.59C17.9447 74.8986 18.8439 74.9663 19.7037 74.7928C20.5747 74.6413 21.3297 74.2874 21.9687 73.7312C22.6078 73.175 23.0762 72.4441 23.374 71.5385C23.6664 70.6493 23.7232 69.783 23.5443 68.9396C23.3655 68.0962 22.9706 67.3551 22.3596 66.7163C21.7485 66.0775 20.9655 65.601 20.0105 65.287L19.7388 65.1976C18.7509 64.8728 17.8078 64.7999 16.9096 64.9789C16.0224 65.1798 15.2375 65.5969 14.5549 66.23C13.8834 66.885 13.3825 67.7147 13.0522 68.7191C12.7923 69.5095 12.6913 70.2882 12.7492 71.0554C12.8017 71.839 13.0349 72.5726 13.4488 73.256L11.9878 73.8704C11.4857 73.0667 11.197 72.1689 11.1218 71.1771C11.0411 70.2018 11.1713 69.1954 11.5124 68.158Z" fill="black"/>
<path d="M8.12542 82.0852L9.34253 82.1944L20.0013 92.2872L19.3449 92.6199L20.179 83.3232L21.7069 83.4603L20.7427 94.2071L19.5515 94.1003L8.8645 84.031L9.52782 83.6207L8.65891 93.3058L7.13105 93.1687L8.12542 82.0852Z" fill="black"/>
<path d="M10.6197 120.988C10.2328 119.62 10.1767 118.339 10.4512 117.144C10.7425 115.945 11.3059 114.912 12.1415 114.045C12.9938 113.174 14.0704 112.554 15.3714 112.186C16.6723 111.818 17.901 111.768 19.0574 112.035C20.2186 112.319 21.2195 112.864 22.0602 113.671C22.9224 114.49 23.5256 115.509 23.87 116.726C24.2192 117.96 24.2447 119.133 23.9465 120.244C23.6697 121.367 23.1005 122.348 22.2388 123.186C21.3937 124.02 20.3124 124.623 18.9948 124.995C18.9114 125.019 18.8173 125.037 18.7125 125.048C18.6291 125.072 18.5374 125.098 18.4373 125.126L15.2031 113.693L16.5291 113.318L19.4943 123.8L18.7708 123.248C19.7215 122.979 20.5048 122.533 21.1207 121.908C21.7581 121.296 22.1861 120.58 22.4049 119.762C22.6238 118.943 22.6034 118.075 22.3439 117.158C22.0892 116.257 21.6519 115.507 21.032 114.908C20.4122 114.309 19.6703 113.915 18.8066 113.727C17.9428 113.539 17.0272 113.582 16.0598 113.856L15.7846 113.933C14.7839 114.217 13.9612 114.683 13.3167 115.334C12.6935 115.997 12.276 116.781 12.0641 117.688C11.8736 118.606 11.9222 119.574 12.21 120.592C12.4365 121.392 12.7882 122.095 13.2652 122.698C13.7469 123.318 14.3504 123.796 15.0757 124.132L14.2079 125.458C13.3423 125.072 12.6009 124.489 11.984 123.709C11.3717 122.946 10.9169 122.038 10.6197 120.988Z" fill="black"/>
<path d="M31.6513 134.935C32.2089 135.894 32.5096 136.842 32.5532 137.779C32.6206 138.723 32.3973 139.614 31.8833 140.455C31.3781 141.31 30.5561 142.068 29.4173 142.731L22.562 146.717L21.6341 145.121L28.332 141.226C29.5757 140.503 30.3292 139.644 30.5926 138.649C30.8796 137.66 30.6964 136.603 30.0429 135.479C29.555 134.64 28.9557 134.006 28.2451 133.577C27.5582 133.155 26.7924 132.958 25.9477 132.988C25.1267 133.025 24.2666 133.304 23.3676 133.827L17.1642 137.434L16.2362 135.839L28.0362 128.977L28.9249 130.505L25.6884 132.387L26.1515 131.787C27.2234 131.665 28.2387 131.877 29.1974 132.422C30.1711 132.959 30.9891 133.796 31.6513 134.935Z" fill="black"/>
<path d="M43.6612 168.633C42.7052 167.914 42.0077 167.053 41.5687 166.051C41.14 165.035 41.0166 163.944 41.1982 162.78C41.3799 161.615 41.9135 160.444 42.7989 159.266C43.6947 158.075 44.6716 157.237 45.7295 156.753C46.8117 156.266 47.8953 156.094 48.9802 156.237C50.0651 156.381 51.0785 156.807 52.0206 157.515C53.0597 158.296 53.8108 159.23 54.274 160.315C54.7615 161.397 54.9283 162.531 54.7743 163.717C54.6204 164.902 54.1267 166.049 53.2934 167.157C52.4704 168.252 51.5057 169.044 50.3993 169.535C49.3032 170.012 48.1625 170.174 46.9771 170.02C45.8055 169.876 44.7002 169.414 43.6612 168.633ZM38.1076 164.294L49.7015 148.875L51.1769 149.984L45.3644 157.715L43.5003 159.761L41.9895 162.074L39.5207 165.357L38.1076 164.294ZM44.5416 167.245C45.3175 167.829 46.1404 168.176 47.0104 168.288C47.8908 168.387 48.7507 168.252 49.5901 167.886C50.4399 167.506 51.1825 166.893 51.8179 166.048C52.4637 165.189 52.8461 164.305 52.9651 163.397C53.0841 162.489 52.969 161.633 52.6198 160.828C52.2811 160.009 51.7238 159.308 50.948 158.725C50.1721 158.142 49.3371 157.796 48.4428 157.687C47.5728 157.575 46.7181 157.703 45.8787 158.069C45.0532 158.446 44.3175 159.064 43.6717 159.923C43.0363 160.768 42.647 161.646 42.5037 162.558C42.3847 163.466 42.4946 164.329 42.8334 165.148C43.1964 165.963 43.7658 166.662 44.5416 167.245Z" fill="black"/>
<path d="M65.7484 180.566L66.9053 177.781L67.0227 177.295L68.9575 172.637C69.403 171.564 69.4412 170.614 69.0723 169.785C68.7194 168.962 67.9507 168.305 66.7661 167.813C65.9497 167.474 65.1169 167.288 64.2675 167.254C63.4181 167.22 62.6442 167.321 61.9458 167.557L61.706 165.965C62.5724 165.687 63.5136 165.59 64.5297 165.674C65.5525 165.742 66.5601 165.982 67.5525 166.394C69.1853 167.073 70.2723 168.003 70.8136 169.185C71.3776 170.357 71.3172 171.768 70.6324 173.417L67.3811 181.245L65.7484 180.566ZM61.3525 178.881C60.408 178.489 59.6468 177.995 59.0688 177.398C58.5135 176.792 58.1647 176.14 58.0226 175.443C57.8872 174.73 57.969 174.013 58.2682 173.293C58.5408 172.636 58.9389 172.107 59.4625 171.705C60.0087 171.294 60.7004 171.075 61.5377 171.047C62.3977 171.01 63.4279 171.241 64.6285 171.74L68.9745 173.545L68.4459 174.817L64.1479 173.032C62.9314 172.527 61.9932 172.391 61.3335 172.623C60.6898 172.863 60.2349 173.303 59.969 173.943C59.6698 174.663 59.7105 175.356 60.0913 176.021C60.472 176.686 61.1666 177.227 62.1751 177.646C63.1355 178.045 64.0497 178.172 64.9175 178.025C65.808 177.87 66.5862 177.442 67.2521 176.743L67.1476 178.079C66.4817 178.778 65.6455 179.21 64.639 179.374C63.6486 179.544 62.553 179.38 61.3525 178.881Z" fill="black"/>
<path d="M81.8247 185.034C80.7145 184.842 79.6906 184.507 78.7531 184.028C77.8186 183.533 77.1108 182.997 76.6298 182.421L77.6977 181.128C78.1734 181.633 78.8117 182.112 79.6125 182.567C80.4163 183.005 81.2879 183.306 82.2273 183.468C83.5083 183.689 84.4646 183.652 85.0962 183.357C85.7307 183.044 86.1055 182.555 86.2206 181.889C86.3062 181.394 86.2104 180.981 85.9331 180.652C85.6759 180.308 85.3029 180.024 84.8141 179.799C84.3282 179.557 83.7782 179.33 83.164 179.118C82.5497 178.906 81.9384 178.677 81.3301 178.432C80.7388 178.189 80.2091 177.895 79.741 177.55C79.2758 177.188 78.9208 176.749 78.676 176.231C78.4483 175.717 78.4009 175.076 78.5337 174.307C78.6607 173.573 78.9793 172.95 79.4896 172.44C79.9999 171.931 80.676 171.581 81.5177 171.393C82.3795 171.19 83.3826 171.187 84.527 171.385C85.3981 171.536 86.2485 171.806 87.0782 172.195C87.9109 172.568 88.5766 172.991 89.0753 173.464L88.0287 174.787C87.5017 174.274 86.9114 173.873 86.2577 173.584C85.607 173.278 84.94 173.066 84.2568 172.948C83.0442 172.738 82.1106 172.797 81.456 173.123C80.8215 173.436 80.4482 173.917 80.336 174.566C80.2474 175.078 80.3318 175.506 80.589 175.85C80.8633 176.196 81.242 176.499 81.7248 176.758C82.2277 177.004 82.7778 177.231 83.3749 177.439C83.9892 177.651 84.5905 177.887 85.1788 178.147C85.7871 178.393 86.3254 178.688 86.7935 179.033C87.2816 179.364 87.6396 179.786 87.8673 180.3C88.115 180.8 88.1755 181.418 88.0485 182.152C87.9127 182.938 87.5726 183.583 87.0281 184.087C86.5037 184.577 85.7949 184.911 84.9019 185.091C84.0289 185.257 83.0032 185.238 81.8247 185.034Z" fill="black"/>
<path d="M109.548 185.818L105.532 168.066L112.759 166.431C114.653 166.003 116.395 166.008 117.988 166.448C119.593 166.867 120.944 167.654 122.041 168.81C123.138 169.965 123.883 171.414 124.277 173.155C124.671 174.897 124.622 176.525 124.129 178.04C123.637 179.556 122.758 180.856 121.493 181.942C120.242 183.007 118.669 183.754 116.775 184.183L109.548 185.818ZM111.057 183.77L116.307 182.583C117.879 182.227 119.171 181.615 120.183 180.746C121.208 179.856 121.919 178.798 122.317 177.571C122.711 176.326 122.747 174.994 122.426 173.574C122.101 172.137 121.494 170.95 120.607 170.014C119.72 169.077 118.624 168.436 117.32 168.092C116.029 167.726 114.597 167.721 113.025 168.077L107.776 169.265L111.057 183.77Z" fill="black"/>
<path d="M140.836 175.316C139.586 175.993 138.348 176.328 137.122 176.322C135.888 176.3 134.757 175.977 133.728 175.351C132.691 174.71 131.851 173.795 131.207 172.607C130.563 171.418 130.245 170.23 130.253 169.043C130.276 167.848 130.589 166.752 131.192 165.755C131.803 164.734 132.664 163.923 133.777 163.32C134.905 162.709 136.043 162.428 137.193 162.475C138.349 162.5 139.431 162.84 140.437 163.498C141.435 164.14 142.26 165.063 142.913 166.267C142.954 166.343 142.992 166.431 143.026 166.531C143.067 166.607 143.113 166.691 143.162 166.782L132.714 172.441L132.058 171.229L141.637 166.041L141.257 166.868C140.786 165.999 140.179 165.333 139.435 164.868C138.698 164.381 137.906 164.12 137.059 164.085C136.213 164.051 135.37 164.261 134.532 164.715C133.709 165.16 133.073 165.751 132.624 166.487C132.175 167.223 131.953 168.033 131.959 168.917C131.965 169.801 132.207 170.685 132.686 171.569L132.822 171.821C133.317 172.735 133.953 173.436 134.729 173.922C135.512 174.385 136.369 174.621 137.3 174.629C138.238 174.614 139.171 174.355 140.101 173.851C140.833 173.455 141.441 172.958 141.925 172.36C142.425 171.755 142.759 171.061 142.928 170.28L144.412 170.836C144.225 171.766 143.818 172.616 143.192 173.389C142.581 174.154 141.796 174.796 140.836 175.316ZM131.314 162.377L132.911 157.846L135.083 156.669L132.915 161.51L131.314 162.377Z" fill="black"/>
<path d="M154.093 166.313L144.241 154.521C143.463 153.59 143.108 152.611 143.175 151.583C143.242 150.556 143.788 149.614 144.812 148.758C145.211 148.425 145.642 148.155 146.103 147.951C146.564 147.746 147.016 147.651 147.458 147.666L147.862 149.124C147.518 149.117 147.18 149.185 146.847 149.328C146.503 149.457 146.179 149.649 145.873 149.905C145.274 150.405 144.954 150.955 144.913 151.554C144.871 152.153 145.123 152.779 145.668 153.431L147.001 155.027L147.591 155.652L155.51 165.129L154.093 166.313ZM144.449 158.582L143.466 157.405L149.95 151.987L150.934 153.164L144.449 158.582Z" fill="black"/>
<path d="M164.316 156.658L154.111 147.592L155.337 146.212L165.542 155.278L164.316 156.658ZM152.478 144.889C152.225 145.174 151.915 145.328 151.548 145.349C151.181 145.371 150.861 145.261 150.589 145.019C150.317 144.777 150.177 144.479 150.168 144.123C150.146 143.756 150.262 143.43 150.515 143.145C150.769 142.86 151.072 142.701 151.426 142.668C151.78 142.634 152.094 142.739 152.366 142.981C152.651 143.234 152.804 143.544 152.826 143.911C152.859 144.265 152.743 144.591 152.478 144.889Z" fill="black"/>
<path d="M171.966 146.966L155.929 136.242L156.956 134.707L172.992 145.432L171.966 146.966Z" fill="black"/>
<path d="M180.809 130.98C180.254 132.288 179.495 133.322 178.533 134.081C177.555 134.833 176.469 135.286 175.274 135.438C174.064 135.584 172.837 135.393 171.592 134.865C170.347 134.337 169.358 133.606 168.624 132.674C167.897 131.725 167.458 130.673 167.308 129.517C167.149 128.339 167.316 127.167 167.81 126.002C168.311 124.821 169.026 123.891 169.954 123.212C170.874 122.51 171.932 122.102 173.128 121.988C174.309 121.868 175.53 122.075 176.79 122.61C176.87 122.643 176.955 122.689 177.043 122.745C177.123 122.779 177.211 122.816 177.307 122.857L172.667 133.795L171.398 133.257L175.652 123.228L175.871 124.112C174.961 123.726 174.071 123.584 173.199 123.685C172.319 123.763 171.537 124.053 170.854 124.554C170.171 125.055 169.643 125.744 169.271 126.622C168.905 127.483 168.776 128.342 168.884 129.197C168.992 130.053 169.324 130.824 169.879 131.512C170.435 132.199 171.175 132.739 172.101 133.132L172.364 133.244C173.322 133.65 174.255 133.801 175.165 133.697C176.066 133.571 176.883 133.221 177.616 132.647C178.34 132.05 178.908 131.265 179.321 130.292C179.646 129.526 179.812 128.758 179.818 127.989C179.831 127.204 179.66 126.453 179.304 125.738L180.812 125.247C181.245 126.09 181.458 127.009 181.45 128.004C181.449 128.982 181.235 129.974 180.809 130.98Z" fill="black"/>
<path d="M185.346 117.383L184.142 117.173L174.362 106.226L175.044 105.95L173.437 115.144L171.926 114.88L173.783 104.251L174.961 104.457L184.771 115.383L184.076 115.736L185.75 106.157L187.261 106.421L185.346 117.383Z" fill="black"/>
<path d="M186.104 78.4084C186.376 79.8035 186.325 81.0848 185.952 82.2523C185.561 83.423 184.914 84.4055 184.009 85.1996C183.087 85.997 181.962 86.5249 180.635 86.7831C179.308 87.0413 178.079 86.989 176.949 86.6262C175.816 86.2463 174.864 85.6193 174.093 84.745C173.303 83.857 172.786 82.792 172.545 81.55C172.3 80.2909 172.372 79.1202 172.762 78.0378C173.131 76.9418 173.78 76.012 174.709 75.2486C175.621 74.4885 176.749 73.9777 178.093 73.7162C178.178 73.6996 178.273 73.6899 178.378 73.6871C178.463 73.6705 178.557 73.6523 178.659 73.6324L180.929 85.2957L179.576 85.5589L177.495 74.8654L178.17 75.4757C177.2 75.6644 176.383 76.0443 175.717 76.6153C175.03 77.1726 174.544 77.85 174.258 78.6473C173.972 79.4447 173.919 80.3113 174.102 81.2471C174.28 82.1658 174.654 82.9496 175.221 83.5985C175.789 84.2473 176.495 84.7015 177.34 84.9608C178.186 85.2202 179.102 85.2539 180.088 85.0619L180.369 85.0072C181.39 84.8086 182.249 84.412 182.945 83.8173C183.622 83.2089 184.103 82.4619 184.39 81.5761C184.656 80.6767 184.689 79.708 184.487 78.6702C184.328 77.8535 184.036 77.1245 183.611 76.4832C183.182 75.8249 182.621 75.2984 181.926 74.9039L182.901 73.6546C183.732 74.111 184.422 74.7537 184.972 75.5826C185.518 76.3946 185.896 77.3365 186.104 78.4084Z" fill="black"/>
<path d="M166.309 62.7555C165.833 61.7533 165.613 60.7835 165.648 59.8461C165.659 58.9004 165.956 58.0304 166.538 57.2359C167.113 56.4258 167.996 55.7383 169.186 55.1734L176.349 51.7726L177.141 53.4403L170.142 56.763C168.842 57.3799 168.019 58.1733 167.674 59.1432C167.305 60.1048 167.4 61.1728 167.957 62.3472C168.374 63.2241 168.918 63.9059 169.59 64.3926C170.24 64.871 170.986 65.1305 171.831 65.1711C172.652 65.2033 173.532 64.9965 174.472 64.5505L180.954 61.4731L181.746 63.1408L169.415 68.9945L168.657 67.3973L172.039 65.7917L171.527 66.3511C170.449 66.3834 169.455 66.0878 168.545 65.4644C167.619 64.8485 166.874 63.9455 166.309 62.7555Z" fill="black"/>
<path d="M157.152 28.1737C158.044 28.9696 158.668 29.8854 159.021 30.9209C159.364 31.9694 159.396 33.0663 159.118 34.2117C158.84 35.357 158.21 36.4795 157.23 37.5792C156.238 38.6918 155.194 39.4451 154.1 39.8393C152.981 40.2348 151.886 40.3159 150.817 40.0825C149.748 39.849 148.774 39.3401 147.894 38.5557C146.924 37.6905 146.253 36.6976 145.882 35.5772C145.486 34.4581 145.415 33.3143 145.667 32.1459C145.919 30.9774 146.507 29.8757 147.43 28.8408C148.341 27.8187 149.369 27.1092 150.512 26.7123C151.644 26.3283 152.794 26.2624 153.963 26.5147C155.118 26.7555 156.181 27.3085 157.152 28.1737ZM162.324 32.96L149.485 47.359L148.107 46.1304L154.544 38.9115L156.572 37.0276L158.27 34.8494L161.004 31.7834L162.324 32.96ZM156.158 29.4827C155.434 28.8367 154.643 28.4216 153.785 28.2375C152.916 28.0663 152.048 28.1282 151.181 28.4234C150.302 28.7315 149.511 29.2802 148.808 30.0693C148.092 30.8714 147.638 31.72 147.443 32.615C147.249 33.5101 147.292 34.3731 147.573 35.2041C147.843 36.048 148.339 36.793 149.064 37.439C149.788 38.085 150.592 38.4994 151.474 38.6822C152.331 38.8663 153.194 38.8108 154.061 38.5156C154.915 38.2089 155.699 37.6545 156.415 36.8524C157.118 36.0633 157.58 35.2205 157.798 34.324C157.993 33.429 157.955 32.5595 157.686 31.7156C157.392 30.873 156.883 30.1287 156.158 29.4827Z" fill="black"/>
<path d="M136.137 14.4395L134.751 17.1186L134.594 17.5933L132.277 22.0738C131.744 23.1055 131.626 24.0497 131.925 24.9065C132.208 25.7553 132.919 26.4743 134.059 27.0633C134.844 27.4693 135.658 27.7246 136.502 27.829C137.346 27.9334 138.125 27.8975 138.841 27.7211L138.947 29.3273C138.06 29.5323 137.114 29.5506 136.109 29.3819C135.095 29.2287 134.111 28.9053 133.157 28.4117C131.586 27.5997 130.581 26.5822 130.14 25.3591C129.675 24.1434 129.853 22.7427 130.673 21.1567L134.566 13.6275L136.137 14.4395ZM140.377 16.4853C141.285 16.955 142.002 17.5113 142.529 18.1541C143.031 18.8043 143.325 19.4827 143.408 20.1893C143.484 20.9113 143.342 21.6188 142.984 22.3116C142.658 22.9429 142.217 23.437 141.662 23.7939C141.083 24.1581 140.375 24.3191 139.539 24.2768C138.679 24.2419 137.671 23.926 136.516 23.3289L132.336 21.1676L132.969 19.9435L137.103 22.0809C138.273 22.686 139.197 22.9 139.874 22.7231C140.535 22.5382 141.025 22.1379 141.343 21.522C141.702 20.8291 141.719 20.1355 141.395 19.4411C141.071 18.7468 140.424 18.1489 139.454 17.6473C138.53 17.1697 137.63 16.9676 136.753 17.041C135.852 17.1219 135.041 17.483 134.319 18.1245L134.535 16.8017C135.257 16.1603 136.126 15.7999 137.143 15.7206C138.144 15.6334 139.222 15.8883 140.377 16.4853Z" fill="black"/>
<path d="M120.489 8.64647C121.579 8.93029 122.572 9.3498 123.466 9.905C124.356 10.477 125.016 11.0698 125.448 11.6836L124.276 12.8831C123.844 12.3408 123.248 11.8095 122.488 11.2892C121.723 10.7857 120.88 10.4139 119.957 10.1737C118.699 9.84625 117.743 9.80336 117.089 10.0451C116.431 10.3036 116.016 10.7599 115.846 11.4141C115.719 11.9006 115.78 12.3195 116.029 12.6708C116.257 13.0346 116.605 13.3491 117.073 13.6142C117.537 13.8962 118.066 14.1683 118.661 14.4305C119.255 14.6927 119.845 14.9717 120.431 15.2674C121 15.5588 121.503 15.8958 121.941 16.2784C122.374 16.6778 122.692 17.1455 122.892 17.6813C123.076 18.2128 123.07 18.856 122.874 19.6109C122.686 20.3321 122.317 20.9256 121.765 21.3911C121.214 21.8566 120.512 22.1483 119.657 22.2662C118.781 22.3964 117.782 22.3153 116.658 22.0227C115.802 21.8 114.977 21.4599 114.183 21.0024C113.384 20.5616 112.756 20.0847 112.299 19.5716L113.452 18.3404C113.934 18.8958 114.489 19.3447 115.116 19.6871C115.739 20.0463 116.386 20.3132 117.057 20.4879C118.248 20.7979 119.183 20.8175 119.863 20.5466C120.521 20.2881 120.933 19.8401 121.099 19.2027C121.23 18.6995 121.182 18.266 120.954 17.9022C120.71 17.5341 120.358 17.2006 119.898 16.9019C119.417 16.6156 118.888 16.3435 118.311 16.0856C117.716 15.8234 117.137 15.5383 116.572 15.2301C115.986 14.9343 115.475 14.5952 115.037 14.2125C114.578 13.8423 114.257 13.3915 114.072 12.86C113.867 12.3409 113.859 11.7207 114.046 10.9994C114.247 10.2278 114.64 9.61357 115.225 9.15677C115.788 8.71238 116.522 8.43781 117.427 8.33306C118.311 8.24071 119.331 8.34518 120.489 8.64647Z" fill="black"/>
<path d="M95.4194 61.3572V122.225M95.4194 122.225L112.839 104.472M95.4194 122.225L78 104.472" stroke="black" stroke-width="5" stroke-linecap="round" stroke-linejoin="round"/>
</svg>
